<?xml version="1.0" encoding="utf-8"?>
<!-- Generator: Adobe Illustrator 24.0.3, SVG Export Plug-In . SVG Version: 6.00 Build 0)  -->
<svg version="1.1" id="Layer_1" xmlns="http://www.w3.org/2000/svg" xmlns:xlink="http://www.w3.org/1999/xlink" x="0px" y="0px"
	 viewBox="0 0 157.73 42.24" style="enable-background:new 0 0 157.73 42.24;" xml:space="preserve">
<style type="text/css">
	.st0{fill:#FFFFFF;}
	.st1{fill:#527DF6;}
	.st2{fill:#141414;}
</style>
<g>
	<g>
		<rect x="6.06" y="5.92" class="st0" width="35.65" height="35.65"/>
		<g>
			<rect x="11.33" y="11.11" width="8.39" height="8.39"/>
			<rect x="11.33" y="19.5" width="8.39" height="8.39"/>
			<rect x="11.33" y="27.9" class="st1" width="8.39" height="8.39"/>
			<rect x="19.73" y="27.9" width="8.39" height="8.39"/>
			<rect x="28.12" y="19.5" width="8.39" height="8.39"/>
			<rect x="28.12" y="11.11" width="8.39" height="8.39"/>
		</g>
	</g>
	<g>
		<polygon class="st2" points="76.51,11.76 66.59,35.73 59.55,35.73 49.67,11.76 56.71,11.76 63.22,28.06 69.96,11.76 		"/>
		<g>
			<path class="st2" d="M109.57,4.55c0-2.18,1.7-3.88,4.24-3.88c2.53,0,4.24,1.6,4.24,3.74c0,2.32-1.7,4.01-4.24,4.01
				C111.27,8.42,109.57,6.73,109.57,4.55z"/>
			<rect x="110.4" y="11.76" class="st2" width="6.82" height="23.96"/>
		</g>
		<path class="st2" d="M91.84,11.41c-7.47,0-12.94,5.12-12.94,12.34c0,7.22,5.46,12.34,12.94,12.34c7.47,0,12.89-5.12,12.89-12.34
			C104.74,16.53,99.32,11.41,91.84,11.41z M91.84,30.38c-3.41,0-6.03-2.49-6.03-6.64c0-4.14,2.62-6.64,6.03-6.64
			c3.41,0,5.99,2.49,5.99,6.64C97.83,27.89,95.25,30.38,91.84,30.38z"/>
		<path class="st2" d="M143.64,35.73l-5.36-7.38l-5.54,7.38h-7.72l9.4-12.13l-9.08-11.95h7.95l5.18,7.02l5.31-7.02h7.54l-9.08,11.77
			l9.45,12.3H143.64z"/>
	</g>
</g>
</svg>
