<?xml version="1.0" encoding="utf-8"?>
<!-- Generator: Adobe Illustrator 24.0.3, SVG Export Plug-In . SVG Version: 6.00 Build 0)  -->
<svg version="1.1" id="Layer_1" xmlns="http://www.w3.org/2000/svg" xmlns:xlink="http://www.w3.org/1999/xlink" x="0px" y="0px"
	 viewBox="0 0 141.73 42.24" style="enable-background:new 0 0 141.73 42.24;" xml:space="preserve">
<style type="text/css">
	.st0{fill:#FFFFFF;}
	.st1{fill:#527DF6;}
	.st2{fill:#141414;}
</style>
<g>
	<g>
		<rect x="6.06" y="5.92" class="st0" width="35.65" height="35.65"/>
		<g>
			<rect x="11.33" y="11.11" width="8.39" height="8.39"/>
			<rect x="11.33" y="19.5" width="8.39" height="8.39"/>
			<rect x="11.33" y="27.9" class="st1" width="8.39" height="8.39"/>
			<rect x="19.73" y="27.9" width="8.39" height="8.39"/>
			<rect x="28.12" y="19.5" width="8.39" height="8.39"/>
			<rect x="28.12" y="11.11" width="8.39" height="8.39"/>
		</g>
	</g>
	<g>
		<polygon class="st2" points="72.78,17.22 66.11,33.34 61.37,33.34 54.73,17.22 59.46,17.22 63.84,28.18 68.37,17.22 		"/>
		<g>
			<path class="st2" d="M95.02,12.36c0-1.47,1.15-2.61,2.85-2.61c1.71,0,2.85,1.08,2.85,2.52c0,1.56-1.15,2.7-2.85,2.7
				C96.17,14.97,95.02,13.83,95.02,12.36z"/>
			<rect x="95.58" y="17.22" class="st2" width="4.59" height="16.12"/>
		</g>
		<path class="st2" d="M83.1,16.98c-5.03,0-8.7,3.45-8.7,8.3c0,4.85,3.68,8.3,8.7,8.3c5.03,0,8.67-3.45,8.67-8.3
			C91.77,20.42,88.12,16.98,83.1,16.98z M83.1,29.74c-2.29,0-4.06-1.68-4.06-4.46c0-2.79,1.76-4.46,4.06-4.46s4.03,1.68,4.03,4.46
			C87.12,28.06,85.39,29.74,83.1,29.74z"/>
		<path class="st2" d="M116.44,33.34l-3.6-4.97l-3.73,4.97h-5.19l6.32-8.16l-6.11-8.04h5.35l3.48,4.73l3.57-4.73h5.07l-6.11,7.92
			l6.35,8.28H116.44z"/>
	</g>
</g>
</svg>
