<?xml version="1.0" standalone="no"?>
<!DOCTYPE svg PUBLIC "-//W3C//DTD SVG 20010904//EN"
 "http://www.w3.org/TR/2001/REC-SVG-20010904/DTD/svg10.dtd">
<svg version="1.0" xmlns="http://www.w3.org/2000/svg"
 width="300.000000pt" height="300.000000pt" viewBox="0 0 300.000000 300.000000"
 preserveAspectRatio="xMidYMid meet">
<metadata>
Created by potrace 1.11, written by Peter Selinger 2001-2013
</metadata>
<g transform="translate(0.000000,300.000000) scale(0.100000,-0.100000)"
fill="#000000" stroke="none">
<path d="M446 2560 c-2 -5 0 -2100 3 -2111 0 -3 318 -6 706 -6 l705 0 0 353 0
354 -352 2 -353 3 -1 700 c-1 385 -2 702 -3 705 0 3 -159 5 -352 5 -193 0
-352 -2 -353 -5z"/>
<path d="M1873 2559 c-14 -5 -16 -71 -16 -702 0 -384 3 -700 6 -703 4 -4 568
-8 677 -5 l25 1 0 699 c0 385 -3 703 -7 707 -9 8 -661 12 -685 3z"/>
</g>
</svg>
